<svg id="visual" viewBox="0 0 900 600" width="900" height="600" xmlns="http://www.w3.org/2000/svg" xmlns:xlink="http://www.w3.org/1999/xlink" version="1.1"><rect x="0" y="0" width="900" height="600" fill="#e8e8e8"></rect><defs><linearGradient id="grad1_0" x1="33.3%" y1="0%" x2="100%" y2="100%"><stop offset="20%" stop-color="#e8e8e8" stop-opacity="1"></stop><stop offset="80%" stop-color="#e8e8e8" stop-opacity="1"></stop></linearGradient></defs><defs><linearGradient id="grad2_0" x1="0%" y1="0%" x2="66.7%" y2="100%"><stop offset="20%" stop-color="#e8e8e8" stop-opacity="1"></stop><stop offset="80%" stop-color="#e8e8e8" stop-opacity="1"></stop></linearGradient></defs><g transform="translate(900, 0)"><path d="M0 378.6C-22.8 314.2 -45.7 249.9 -72 221.6C-98.3 193.3 -128.1 201.2 -135.2 186.1C-142.3 171 -126.6 133 -169.9 123.4C-213.2 113.9 -315.4 132.8 -360.1 117C-404.7 101.2 -391.6 50.6 -378.6 0L0 0Z" fill="#eee"></path></g><g transform="translate(0, 600)"><path d="M0 -378.6C49.3 -377.2 98.6 -375.7 105.1 -323.4C111.5 -271 75 -167.7 112.3 -154.5C149.5 -141.4 260.5 -218.4 306.3 -222.5C352.1 -226.6 332.6 -157.7 333.8 -108.5C335 -59.2 356.8 -29.6 378.6 0L0 0Z" fill="#eee"></path></g></svg>